:SAMPLES-PER-SECOND 30
:FULLY-SPECIFIED
:DEGREES
161
root  35.06572453 36.44746795 -14.81014762 12.50987148 14.387043 5.978148937
lowerback  -8.988444328 3.70214963 3.98132658
upperback  -4.316808224 4.294020176 -5.08093977
thorax  1.223880053 1.900407314 -7.123459816
lowerneck  -14.64369965 -6.769360065 -2.853060007
upperneck  12.08880043 -10.03979969 7.995150089
head  6.650549889 -4.441239834 1.976769924
lclavicle  0 -4.497500157e-015 -2.743230041e-014
lhumerus  -43.54919815 29.72310066 65.3184967
lradius  -0.1129238307 -6.507048965e-006 24.65199852
lwrist  4.824992743e-007 -3.790274832e-007 -38.08779907
lhand  -4.448949928e-031 -37.46749878 -10.8416996
lfingers  90 7.125020027 -90
lthumb  95.11952536 -25.65331723 101.6919692
rclavicle  0 -4.497500157e-015 -2.743230041e-014
rhumerus  67.65329742 -12.11740017 -56.03369904
rradius  -5.16745672e-007 2.214343908e-008 36.02880096
rwrist  1.380293725e-006 2.528095422e-007 -153.9819946
rhand  -1.773071127e-031 5.274819851 -7.382599831
rfingers  -90 -7.125020027 -90
rthumb  -84.78979798 -8.718670628 -58.97044486
rfemur  -15.10540295 9.334067345 13.81216526
rtibia  -4.048157215 1.380027652 25.597435
rfoot  -3.688687325 -14.23296261 -45.6696701
rtoes  3.962538615 19.61930219 -101.6567018
lfemur  -13.16483021 -24.49274254 -19.61656189
ltibia  3.554210663 2.470678329 14.8921423
lfoot  1.089715242 -30.0380764 28.76069641
ltoes  -8.620005514 -18.11606981 -115.990459
162
root  35.06780009 36.44789748 -14.81262267 12.49433136 14.32593632 5.957934856
lowerback  -8.993757248 3.702686071 3.964478254
upperback  -4.316648006 4.294765949 -5.088490009
thorax  1.223350048 1.901064634 -7.121419907
lowerneck  -14.64729977 -6.759119987 -2.864490032
upperneck  12.14690018 -10.03390026 8.014969826
head  6.671209812 -4.436270237 1.984629989
lclavicle  0 -4.497500157e-015 -2.743230041e-014
lhumerus  -43.56629944 29.73279953 65.28549957
lradius  -0.1130547002 -6.507048965e-006 24.68289566
lwrist  4.824992743e-007 -3.790274832e-007 -38.12519836
lhand  -4.452818444e-031 -37.53239822 -10.84309959
lfingers  90 7.125020027 -90
lthumb  95.1505054 -25.65221892 101.7615835
rclavicle  0 -4.497500157e-015 -2.743230041e-014
rhumerus  67.52680206 -12.082901 -55.9137001
rradius  -5.16745672e-007 2.214343908e-008 36.16410065
rwrist  1.380293725e-006 2.528095422e-007 -154.1130066
rhand  -1.772708501e-031 5.146309853 -7.215970039
rfingers  -90 -7.125020027 -90
rthumb  -84.73383526 -8.853072359 -59.08255118
rfemur  -15.09687424 9.367655754 13.80655479
rtibia  -4.037839413 1.377006888 25.56721306
rfoot  -3.670525074 -14.23670101 -45.65899277
rtoes  3.958235528 19.62013791 -101.6438865
lfemur  -13.19014263 -24.45935059 -19.60453415
ltibia  3.528133631 2.459031343 14.96247005
lfoot  1.100421309 -30.05674553 28.79030609
ltoes  -8.631130548 -18.11091076 -116.0262423
163
root  35.0694341 36.44796657 -14.81521486 12.47916412 14.26889992 5.953840733
lowerback  -9.002285957 3.70399332 4.000980377
upperback  -4.316800117 4.295770168 -5.100430012
thorax  1.236330032 1.902100563 -7.155620098
lowerneck  -14.65040016 -6.70483017 -2.734189987
upperneck  12.15100002 -9.971119881 7.921370029
head  6.657790184 -4.407080173 1.941669941
lclavicle  0 -4.497500157e-015 -2.743230041e-014
lhumerus  -43.57440186 29.81710052 65.21350098
lradius  -0.1131827682 -6.507048965e-006 24.68119812
lwrist  4.824992743e-007 -3.790274832e-007 -38.22689819
lhand  -0 -37.53929901 -10.82390022
lfingers  90 7.125020027 -90
lthumb  95.1494569 -25.63321165 101.7671459
rclavicle  0 -4.497500157e-015 -2.743230041e-014
rhumerus  67.29540253 -12.06420135 -55.55690002
rradius  -5.16745672e-007 2.214343908e-008 36.38550186
rwrist  1.380293725e-006 2.528095422e-007 -154.4629974
rhand  -1.771676022e-031 4.761189938 -7.226799965
rfingers  -90 -7.125020027 -90
rthumb  -84.83123895 -8.819081271 -59.45895034
rfemur  -15.09029007 9.378347397 13.7995491
rtibia  -4.034854412 1.356046438 25.55644798
rfoot  -3.657244444 -14.27518177 -45.61902618
rtoes  3.924052621 19.62674302 -101.5421023
lfemur  -13.17648888 -24.4221859 -19.61718559
ltibia  3.526794434 2.44810915 14.96666336
lfoot  1.101955533 -30.04288673 28.810812
ltoes  -8.671977748 -18.09189704 -116.1577106
164
root  35.0716298 36.44795455 -14.81805786 12.45944595 14.19478607 5.945411205
lowerback  -9.015298843 3.705806971 4.000549316
upperback  -4.318099976 4.297689915 -5.100679874
thorax  1.242429972 1.903227448 -7.15474987
lowerneck  -14.67889977 -6.685219765 -2.702389956
upperneck  12.22319984 -9.952710152 7.890079975
head  6.681459904 -4.39659977 1.927160025
lclavicle  0 -4.497500157e-015 -2.743230041e-014
lhumerus  -43.60440063 30.03610039 65.07289886
lradius  -0.1133080348 -6.507048965e-006 24.64349747
lwrist  4.824992743e-007 -3.790274832e-007 -38.45500183
lhand  -4.452728941e-031 -37.53089905 -10.83979988
lfingers  90 7.125020027 -90
lthumb  95.14906688 -25.64901517 101.7597038
rclavicle  0 -4.497500157e-015 -2.743230041e-014
rhumerus  67.16220093 -12.07190037 -55.40250015
rradius  -5.16745672e-007 2.214343908e-008 36.49879837
rwrist  1.380293725e-006 2.528095422e-007 -154.6230011
rhand  -1.77153772e-031 4.707180023 -7.083409786
rfingers  -90 -7.125020027 -90
rthumb  -84.77039111 -8.939190492 -59.50033173
rfemur  -15.06830406 9.446066856 13.78062153
rtibia  -4.022924423 1.345708609 25.52695465
rfoot  -3.652872562 -14.29564953 -45.64193726
rtoes  3.916225121 19.62824709 -101.5187994
lfemur  -13.15583611 -24.38465309 -19.63563728
ltibia  3.523073912 2.437390804 14.97708797
lfoot  1.103499532 -30.03738022 28.83719444
ltoes  -8.686863001 -18.08494019 -116.2056527
165
root  35.07442024 36.44821588 -14.82087533 12.44755363 14.10144711 5.941401958
lowerback  -9.029784203 3.707861662 4.008160114
upperback  -4.304530144 4.307970047 -5.106170177
thorax  1.267089963 1.904157162 -7.162690163
lowerneck  -14.70339966 -6.675310135 -2.668900013
upperneck  12.26930046 -9.948300362 7.872849941
head  6.697599888 -4.392700195 1.915629983
lclavicle  0 -4.497500157e-015 -2.743230041e-014
lhumerus  -43.57500076 30.1072979 65.01730347
lradius  -0.1134305298 -6.507048965e-006 24.61529732
lwrist  4.824992743e-007 -3.790274832e-007 -38.5951004
lhand  -4.449890616e-031 -37.48329926 -10.74600029
lfingers  90 7.125020027 -90
lthumb  95.10549571 -25.55902406 101.699648
rclavicle  0 -4.497500157e-015 -2.743230041e-014
rhumerus  67.05180359 -12.06500053 -55.25640106
rradius  -5.16745672e-007 2.214343908e-008 36.62110138
rwrist  1.380293725e-006 2.528095422e-007 -154.6889954
rhand  -1.771248852e-031 4.592299938 -7.263929844
rfingers  -90 -7.125020027 -90
rthumb  -84.89014486 -8.776284955 -59.62662234
rfemur  -15.11156178 9.512389183 13.76793098
rtibia  -4.034822464 1.341790438 25.56996918
rfoot  -3.659135342 -14.30154133 -45.60671997
rtoes  3.923732329 19.62680462 -101.5411487
lfemur  -13.18364906 -24.34240913 -19.64030647
ltibia  3.506487131 2.419339418 15.021595
lfoot  1.112930894 -30.02172661 28.88643265
ltoes  -8.687314935 -18.08472874 -116.2071085
166
root  35.07606026 36.44853727 -14.82237268 12.44172955 14.03377628 5.939905643
lowerback  -9.019996643 3.70989275 4.036912918
upperback  -4.297910213 4.301990032 -5.110650063
thorax  1.270059943 1.90460217 -7.185739994
lowerneck  -14.74530029 -6.686560154 -2.753580093
upperneck  12.35569954 -9.968990326 7.949749947
head  6.742239952 -4.397649765 1.948490024
lclavicle  0 -4.497500157e-015 -2.743230041e-014
lhumerus  -43.52320099 29.98629951 65.11119843
lradius  -0.1135502383 -6.507048965e-006 24.66219902
lwrist  4.824992743e-007 -3.790274832e-007 -38.42710114
lhand  -4.451004858e-031 -37.5019989 -10.65569973
lfingers  90 7.125020027 -90
lthumb  95.09400318 -25.46987498 101.7109677
rclavicle  0 -4.497500157e-015 -2.743230041e-014
rhumerus  66.9265976 -12.01249886 -54.98550034
rradius  -5.16745672e-007 2.214343908e-008 36.75350189
rwrist  1.380293725e-006 2.528095422e-007 -154.9049988
rhand  -1.771714845e-031 4.776239872 -7.325079918
rfingers  -90 -7.125020027 -90
rthumb  -84.87825141 -8.735379315 -59.45204912
rfemur  -15.14959335 9.560203552 13.75575924
rtibia  -4.042133808 1.360992074 25.61188507
rfoot  -3.664805889 -14.27055931 -45.58123398
rtoes  3.924586327 19.62664035 -101.5436912
lfemur  -13.18195915 -24.31756783 -19.65042496
ltibia  3.508337259 2.417626381 15.01651955
lfoot  1.123929024 -30.01552773 28.94154549
ltoes  -8.665033518 -18.09513741 -116.1353509
